<?xml version="1.0" encoding="utf-8"?>
<!DOCTYPE svg PUBLIC "-//W3C//DTD SVG 1.0//EN" "http://www.w3.org/TR/2001/REC-SVG-20010904/DTD/svg10.dtd">
<svg version="1.0" id="Layer_1" xmlns="http://www.w3.org/2000/svg" xmlns:xlink="http://www.w3.org/1999/xlink" x="0px" y="0px"
	 width="216px" height="216px" viewBox="0 0 216 216" enable-background="new 0 0 216 216" xml:space="preserve">
<path fill="#CC3333" d="M160.37,91.413h-3.429V70.401c0-7.171-5.814-12.985-12.984-12.985h-17.284h-0.017
	c-1.942-10.882-12.34-18.13-23.223-16.188c-7.886,1.104-15.083,8.302-16.188,16.188H69.944c-7.17,0-12.984,5.813-12.984,12.985
	v10.915l-23.139,6.278l26.972,8.011l-26.452,7.857l26.452,7.856l-26.452,7.856l26.496,7.871l-3.876,1.16v16.212
	c0,7.171,5.813,12.985,12.984,12.985h24.103v-3.597c0-7.126,5.778-12.902,12.903-12.902c7.126,0,12.903,5.776,12.903,12.902v3.597
	h24.103c7.17,0,12.984-5.813,12.984-12.985v-21.012h3.431l20.924,14.853V76.56L160.37,91.413z M149.827,144.417
	c0,3.242-2.628,5.871-5.871,5.871h-17.301c-1.942-10.883-12.34-18.131-23.223-16.188c-7.886,1.105-15.083,8.303-16.188,16.188
	H69.944c-3.242,0-5.871-2.629-5.871-5.871V133.5l21.66-6.483l-26.407-7.842l26.451-7.856l-26.451-7.856l26.451-7.857l-25.931-7.702
	l4.227-1.146V70.401c0-3.243,2.629-5.871,5.871-5.871h24.103v-3.597c0-7.126,5.778-12.902,12.903-12.902
	c7.126,0,12.903,5.776,12.903,12.902v3.597h24.103c3.242,0,5.871,2.628,5.871,5.871v21.012h-13.463v31.991h13.463V144.417z
	 M157.945,116.291h-14.466V98.526h14.466V116.291z M174.182,124.484l-9.124-6.475V96.808l9.124-6.475V124.484z"/>
<path fill="#CC3333" d="M108,5.4C51.335,5.4,5.4,51.335,5.4,108S51.335,210.6,108,210.6S210.6,164.665,210.6,108
	S164.665,5.4,108,5.4z M108.069,205.517l-0.005-6.781c-0.938,0.008-2.786-0.029-3.722-0.073
	c-50.072-2.021-89.025-44.25-87.005-94.322l-6.774-0.273c1.835-51.996,45.342-93.811,97.369-93.585
	c53.858-0.038,97.549,43.591,97.586,97.448C205.555,161.789,161.926,205.48,108.069,205.517z"/>
</svg>
